<?xml version="1.0" encoding="UTF-8"?>
<!DOCTYPE svg PUBLIC "-//W3C//DTD SVG 1.1//EN" "http://www.w3.org/Graphics/SVG/1.1/DTD/svg11.dtd">
<svg version="1.1" xmlns="http://www.w3.org/2000/svg" xmlns:xlink="http://www.w3.org/1999/xlink" x="0" y="0" width="1650" height="550" viewBox="0, 0, 1650, 550">
  <defs>
    <clipPath id="Clip_1">
      <path d="M267.602,-175.378 C276.446,-173.088 284.743,-168.434 292.783,-164.219 C300.316,-160.269 307.733,-156.111 315.114,-151.887 C340.707,-137.111 360.554,-123.572 359.442,-121.647 C358.331,-119.722 336.682,-130.139 311.089,-144.915 C285.496,-159.692 265.65,-173.231 266.761,-175.156 C267.095,-175.451 266.853,-175.292 267.602,-175.378 z"/>
    </clipPath>
    <filter id="Shadow_2">
      <feGaussianBlur in="SourceAlpha" stdDeviation="2.5"/>
      <feOffset dx="0" dy="0" result="offsetblur"/>
      <feFlood flood-color="#000000"/>
      <feComposite in2="offsetblur" operator="in"/>
    </filter>
  </defs>
  <g id="Layer_1">
    <g id="maple_leaf" display="none">
      <path d="M46.054,-259.099 C46.821,-262.824 48.892,-273.138 59.881,-285.687 C34.064,-283.355 7.335,-297.454 7.335,-297.454 L5.284,-301.01 C5.284,-301.01 5.504,-304.42 8.123,-305.568 C-1.45,-309.521 -29.332,-332.254 -25.701,-348.394 C-24.382,-355.903 25.752,-358.425 59.838,-350.217 C55.114,-355.877 41.874,-402.205 52.964,-414.265 C57.003,-412.952 58.512,-412.547 58.512,-412.547 C58.512,-412.547 68.057,-474.045 111.346,-497.596 C154.216,-477.322 170.399,-416.098 170.399,-416.098 C170.399,-416.098 170.561,-419.292 176.441,-417.948 C188.286,-381.937 171.998,-353.926 171.998,-353.926 C171.998,-353.926 242.477,-374.585 258.199,-356.497 C255.937,-331.666 226.489,-313.194 226.489,-313.194 C226.489,-313.194 231.087,-309.65 228.91,-305.84 C226.865,-303.381 201.739,-290.689 175.665,-289.119 C178.826,-287.116 191.229,-271.305 191.158,-260.687 C177.501,-253.709 137.91,-253.448 122.636,-262.86 C122.301,-259.018 126.181,-235.548 126.181,-235.548 C126.181,-235.548 126.818,-228.439 122.827,-223.034 C118.837,-217.628 107.866,-218.949 105.825,-219.958 C103.785,-220.967 104.536,-223.772 104.536,-223.772 C104.536,-223.772 112.729,-231.058 113.985,-234.884 C117.633,-242.463 116.657,-264.693 115.374,-262.493 C107.628,-256.012 64.253,-243.353 46.054,-259.099 z" fill="#000000"/>
      <path d="M112.048,-492.579 C147.374,-471.858 164.485,-420.475 166.737,-408.024 C169.481,-407.289 168.701,-409.867 174.877,-412.063 C185.58,-376.873 161.844,-344.765 161.844,-344.765 C161.844,-344.765 231.627,-368.126 254.671,-354.251 C254.1,-348.738 251.868,-343.625 248.975,-338.956 C248.269,-337.818 247.449,-336.756 246.686,-335.656 C222.811,-313.261 165.573,-300.599 150.222,-301.316 C154.303,-295.219 166.309,-273.225 161.247,-268.857 C154.687,-264.784 126.199,-270.873 118.165,-275.18 C106.518,-268.393 77.694,-264.486 74.659,-268.084 C69.622,-269.449 80.884,-293.138 90.699,-301.062 C39.521,-297.248 -16.06,-324.972 -21.108,-344.93 C4.558,-357.305 39.733,-348.436 71.67,-340.789 C67.298,-346.285 45.399,-377.743 55.065,-408.327 C58.758,-406.745 61.807,-403.855 61.807,-403.855 C61.807,-403.855 71.083,-468.958 112.048,-492.579 z" fill="#D03713"/>
      <path d="M52.305,-258.711 C51.695,-266.103 67.395,-283.87 73.303,-289.805 C42.778,-284.394 12.55,-299.433 12.55,-299.433 C12.55,-299.433 19.721,-299.948 21.713,-302.472 C16.902,-304.58 -11.415,-321.599 -16.121,-336.906 C-6.409,-320.519 66.87,-297.116 91.252,-301.48 C87.188,-298.515 72.275,-272.219 73.694,-269.102 C76.729,-265.504 105.553,-269.411 117.2,-276.197 C125.234,-271.891 153.722,-265.801 160.283,-269.874 C165.345,-274.243 153.338,-296.237 149.257,-302.334 C164.609,-301.617 223.272,-313.663 248.009,-337.404 C235.922,-317.812 214.051,-309.052 214.051,-309.052 C214.051,-309.052 218.71,-309.249 223.183,-306.605 C222.151,-301.677 181.058,-290.135 163.434,-293.122 C168.404,-288.032 185.748,-273.077 185.565,-262.905 C147.575,-252.996 128.345,-266.382 118.387,-267.894 C108.418,-265.071 89.247,-249.39 52.305,-258.711 z" fill="#A72D0C"/>
    </g>
    <g id="brazil_flag" display="none">
      <g opacity="0.666" display="none">
        <path d="M311.089,-144.915 C285.496,-159.692 265.65,-173.231 266.761,-175.156 C267.873,-177.081 289.521,-166.663 315.114,-151.887 C340.707,-137.111 360.554,-123.572 359.442,-121.647 C358.331,-119.722 336.682,-130.139 311.089,-144.915 z" fill="#000000"/>
        <g>
          <path d="M260.717,-181.378 L365.487,-181.378 L365.487,-115.418 L260.717,-115.418 z M267.602,-175.378 C266.853,-175.292 267.095,-175.451 266.761,-175.156 C265.65,-173.231 285.496,-159.692 311.089,-144.915 C336.682,-130.139 358.331,-119.722 359.442,-121.647 C360.554,-123.572 340.707,-137.111 315.114,-151.887 C307.733,-156.111 300.316,-160.269 292.783,-164.219 C284.743,-168.434 276.446,-173.088 267.602,-175.378 z" fill="rgba(0,0,0,0.75)" clip-path="url(#Clip_1)" filter="url(#Shadow_2)"/>
          <path d="M260.717,-180.128 L365.487,-180.128 L364.237,-181.378 L364.237,-115.418 L365.487,-116.668 L260.717,-116.668 L261.967,-115.418 L261.967,-181.378 L260.717,-180.128 z M260.717,-182.628 C260.027,-182.628 259.467,-182.069 259.467,-181.378 L259.467,-115.418 C259.467,-114.727 260.027,-114.168 260.717,-114.168 L365.487,-114.168 C366.177,-114.168 366.737,-114.727 366.737,-115.418 L366.737,-181.378 C366.737,-182.069 366.177,-182.628 365.487,-182.628 L260.717,-182.628 z M267.459,-176.62 C267.271,-176.598 266.919,-176.591 266.893,-176.588 C266.613,-176.558 266.373,-176.454 266.161,-176.29 C266.096,-176.239 265.872,-176.038 265.934,-176.093 C265.833,-176.004 265.747,-175.898 265.679,-175.781 C264.526,-173.785 268.477,-170.46 278.207,-163.822 C286.494,-158.168 297.981,-151.04 310.464,-143.833 C322.947,-136.626 334.864,-130.242 343.904,-125.892 C354.517,-120.785 359.372,-119.025 360.525,-121.022 C361.677,-123.018 357.726,-126.343 347.997,-132.98 C339.709,-138.634 328.222,-145.763 315.739,-152.97 C307.037,-157.95 300.132,-161.777 293.363,-165.326 C292.809,-165.617 292.246,-165.913 291.473,-166.322 C290.998,-166.572 290.998,-166.572 290.522,-166.824 C290.142,-167.024 289.851,-167.178 289.568,-167.327 C279.822,-172.464 274.337,-174.925 267.915,-176.588 C267.766,-176.627 267.611,-176.638 267.459,-176.62 z M267.745,-174.137 L267.602,-175.378 L267.288,-174.168 C273.467,-172.568 278.821,-170.166 288.402,-165.116 C288.685,-164.966 288.975,-164.813 289.355,-164.613 C289.83,-164.362 289.83,-164.362 290.305,-164.111 C291.081,-163.702 291.646,-163.404 292.202,-163.112 C298.94,-159.58 305.82,-155.766 314.493,-150.802 C326.921,-143.627 338.357,-136.531 346.588,-130.915 C350.597,-128.18 353.728,-125.876 355.779,-124.15 C356.789,-123.3 357.52,-122.604 357.946,-122.092 C358.121,-121.883 358.227,-121.724 358.262,-121.643 C358.211,-121.761 358.195,-121.987 358.36,-122.272 C358.524,-122.556 358.727,-122.656 358.855,-122.67 C358.768,-122.66 358.577,-122.673 358.308,-122.719 C357.652,-122.833 356.684,-123.118 355.443,-123.568 C352.922,-124.481 349.361,-126.04 344.988,-128.144 C336.01,-132.465 324.146,-138.82 311.714,-145.998 C299.282,-153.176 287.847,-160.272 279.616,-165.887 C275.607,-168.622 272.476,-170.927 270.425,-172.653 C269.415,-173.503 268.684,-174.199 268.257,-174.71 C268.083,-174.92 267.977,-175.078 267.941,-175.159 C267.993,-175.041 268.008,-174.816 267.844,-174.531 L266.761,-175.156 L267.589,-174.219 C267.63,-174.255 267.712,-174.329 267.696,-174.316 C267.556,-174.207 267.364,-174.124 267.159,-174.102 C267.04,-174.09 267.405,-174.097 267.745,-174.137 z" fill="rgba(0,0,0,0.75)" clip-path="url(#Clip_1)" filter="url(#Shadow_2)"/>
        </g>
      </g>
      <path d="M367.055,-133.882 C302.411,-133.882 250.006,-187.073 250.006,-252.688 C250.006,-318.302 302.411,-371.493 367.055,-371.493 C431.699,-371.493 484.103,-318.302 484.103,-252.688 C484.103,-187.073 431.699,-133.882 367.055,-133.882 z" fill="#008301"/>
      <path d="M370.349,-314.835 L468.419,-251.5 L370.349,-186.148 L272.278,-249.922 L370.349,-314.835 z" fill="#FFFF02"/>
      <path d="M370.706,-210.111 C348.632,-210.111 330.738,-228.103 330.738,-250.298 C330.738,-272.493 348.632,-290.485 370.706,-290.485 C392.78,-290.485 410.674,-272.493 410.674,-250.298 C410.674,-228.103 392.78,-210.111 370.706,-210.111 z" fill="#0505A3"/>
      <path d="M410.52,-252.992 C410.52,-252.992 392.516,-264.635 375.952,-269.556 C361.788,-274.597 344.384,-276.037 339.823,-275.917 C336.462,-272.677 335.622,-269.556 335.622,-269.556 C335.622,-269.556 358.307,-266.915 374.271,-262.114 C380.393,-260.073 390.956,-255.152 410.16,-244.47 C410.52,-246.51 410.52,-252.992 410.52,-252.992 z" fill="#FFFFFF" display="none"/>
      <path d="M369.031,-133.443 C337.408,-130.808 298.758,-153.207 279.872,-172.533 C302.272,-158.478 324.156,-143.106 369.031,-143.106 C413.906,-143.106 434.473,-161.113 450.723,-172.972 C431.837,-148.815 400.654,-136.078 369.031,-133.443 z" fill="#FFFFFF" opacity="0.174" display="none"/>
      <path d="M367.055,-371.493 C471.805,-363.587 483.225,-272.671 483.664,-256.86 C469.17,-273.989 445.453,-301.659 368.592,-258.617 C337.408,-237.974 313.691,-225.676 251.324,-231.386 C243.857,-257.738 258.79,-368.418 367.055,-371.493 z" fill="#FFFFFF" opacity="0.169" display="none"/>
    </g>
    <g id="logo">
      <path d="M988.283,-448.954 C989.715,-447.566 990.321,-446.522 990.967,-444.681 C991.337,-443.433 991.371,-442.133 991.157,-440.857 C991.155,-440.209 991.176,-440.606 991.028,-439.672 L991.036,-439.67 L975.089,-383.59 C973.893,-379.384 967.893,-375.356 962.469,-376.898 C957.045,-378.441 954.25,-384.969 955.446,-389.175 L966.178,-426.915 L928.195,-416.115 L928.193,-416.122 C923.963,-415.212 918.122,-417.956 916.505,-423.377 C915.163,-428.909 918.331,-434.319 922.612,-435.749 L922.61,-435.757 L978.69,-451.704 C981.427,-452.37 984.339,-451.68 986.691,-450.176 C987.255,-449.816 987.752,-449.362 988.283,-448.954 z" fill="#FF0000"/>
      <path d="M830.911,-405.9 C831.51,-407.927 832.186,-409.035 833.579,-410.616 C834.556,-411.628 835.74,-412.371 837.022,-412.883 C837.622,-413.236 837.245,-413.037 838.179,-413.419 L838.177,-413.427 L897.605,-430.114 C902.062,-431.366 908.646,-428.277 909.808,-422.639 C910.97,-417.002 906.271,-410.95 901.814,-409.699 L861.821,-398.468 L889.922,-370.843 L889.916,-370.837 C892.775,-367.6 893.026,-360.935 888.788,-356.531 C884.316,-352.31 877.805,-352.139 874.442,-355.137 L874.436,-355.131 L832.947,-395.917 C831.025,-397.97 830.274,-400.921 830.541,-403.823 C830.605,-404.519 830.788,-405.208 830.911,-405.9 z" fill="#008301"/>
      <path d="M947.985,-288.802 C945.923,-288.171 944.617,-288.142 942.537,-288.492 C941.162,-288.794 939.914,-289.44 938.816,-290.309 C938.204,-290.649 938.569,-290.423 937.762,-291.05 L937.756,-291.044 L892.98,-335.432 C889.622,-338.762 888.941,-346.546 893.235,-350.877 C897.528,-355.207 905.169,-354.444 908.528,-351.115 L938.66,-321.243 L948.269,-362.851 L948.277,-362.849 C949.624,-367.33 955.273,-371.428 961.252,-370.128 C967.191,-368.509 970.659,-362.684 969.777,-357.884 L969.786,-357.882 L955.599,-296.45 C954.8,-293.51 952.626,-291.113 949.974,-289.671 C949.338,-289.325 948.648,-289.091 947.985,-288.802 z" fill="#0505A3"/>
      <path d="M992.478,-453.684 C987.712,-458.45 987.712,-466.177 992.478,-470.943 C997.244,-475.709 1004.971,-475.709 1009.737,-470.943 C1014.503,-466.177 1014.503,-458.45 1009.737,-453.684 C1004.971,-448.918 997.244,-448.918 992.478,-453.684 z" fill="#FF0000"/>
      <path d="M803.026,-398.995 C798.26,-403.761 798.26,-411.488 803.026,-416.254 C807.792,-421.019 815.518,-421.019 820.284,-416.254 C825.05,-411.488 825.05,-403.761 820.284,-398.995 C815.518,-394.229 807.792,-394.229 803.026,-398.995 z" fill="#008301"/>
      <path d="M942.307,-263.399 C937.541,-268.164 937.541,-275.891 942.307,-280.657 C947.073,-285.423 954.8,-285.423 959.566,-280.657 C964.332,-275.891 964.332,-268.164 959.566,-263.399 C954.8,-258.633 947.073,-258.633 942.307,-263.399 z" fill="#1B2295"/>
    </g>
    <g id="maple_leaf">
      <path d="M90.129,363.03 C90.896,359.305 92.967,348.991 103.956,336.441 C78.14,338.774 51.41,324.674 51.41,324.674 L49.359,321.118 C49.359,321.118 49.579,317.709 52.198,316.56 C42.626,312.608 14.743,289.875 18.374,273.735 C19.693,266.226 69.828,263.703 103.913,271.912 C99.189,266.252 85.949,219.923 97.039,207.864 C101.078,209.177 102.587,209.582 102.587,209.582 C102.587,209.582 112.132,148.083 155.421,124.533 C198.292,144.807 214.474,206.03 214.474,206.03 C214.474,206.03 214.637,202.837 220.516,204.181 C232.361,240.192 216.073,268.202 216.073,268.202 C216.073,268.202 286.552,247.544 302.275,265.631 C300.012,290.463 270.565,308.934 270.565,308.934 C270.565,308.934 275.162,312.479 272.985,316.289 C270.94,318.747 245.814,331.44 219.74,333.009 C222.901,335.013 235.304,350.824 235.233,361.442 C221.576,368.42 181.986,368.681 166.712,359.269 C166.376,363.11 170.256,386.581 170.256,386.581 C170.256,386.581 170.893,393.69 166.903,399.095 C162.912,404.501 151.941,403.18 149.9,402.171 C147.86,401.161 148.611,398.357 148.611,398.357 C148.611,398.357 156.804,391.07 158.06,387.245 C161.708,379.666 160.732,357.436 159.449,359.636 C151.703,366.116 108.328,378.775 90.129,363.03 z" fill="#000000"/>
      <path d="M96.38,363.418 C95.77,356.026 111.47,338.259 117.378,332.324 C86.853,337.734 56.625,322.695 56.625,322.695 C56.625,322.695 63.796,322.181 65.788,319.657 C60.977,317.549 32.66,300.53 27.954,285.223 C37.666,301.609 110.945,325.013 135.328,320.649 C131.263,323.614 116.35,349.91 117.769,353.027 C120.804,356.625 149.628,352.718 161.276,345.931 C169.309,350.238 197.798,356.327 204.358,352.254 C209.42,347.886 197.413,325.892 193.332,319.795 C208.684,320.512 267.347,308.465 292.084,284.725 C279.997,304.317 258.126,313.077 258.126,313.077 C258.126,313.077 262.785,312.879 267.258,315.524 C266.226,320.452 225.133,331.994 207.509,329.006 C212.479,334.097 229.823,349.052 229.64,359.224 C191.65,369.133 172.42,355.747 162.462,354.235 C152.493,357.057 133.322,372.739 96.38,363.418 z" fill="#003F00"/>
      <path d="M156.123,129.55 C191.449,150.271 208.561,201.654 210.812,214.105 C213.556,214.84 212.776,212.262 218.952,210.066 C229.655,245.256 205.919,277.364 205.919,277.364 C205.919,277.364 275.702,254.003 298.746,267.878 C298.175,273.391 295.943,278.504 293.05,283.172 C292.345,284.31 291.524,285.372 290.762,286.472 C266.886,308.867 209.649,321.53 194.297,320.812 C198.378,326.91 210.384,348.904 205.323,353.272 C198.762,357.345 170.274,351.255 162.24,346.949 C150.593,353.736 121.769,357.643 118.734,354.045 C113.697,352.68 124.959,328.991 134.774,321.067 C83.596,324.881 28.015,297.157 22.967,277.199 C48.633,264.824 83.808,273.693 115.745,281.34 C111.373,275.844 89.475,244.385 99.14,213.802 C102.833,215.384 105.882,218.274 105.882,218.274 C105.882,218.274 115.158,153.171 156.123,129.55 z" fill="#008301"/>
      <path d="M198.656,180.502 C203.674,191.266 208.48,202.394 210.812,214.105 C213.556,214.84 212.776,212.262 218.952,210.066 C229.655,245.256 205.919,277.364 205.919,277.364 C205.919,277.364 275.702,254.003 298.746,267.878 C298.353,270.657 298.624,269.258 297.917,272.073 L236.104,313.264 C223.012,316.71 207.952,321.058 194.297,320.812 C195.21,322.159 196.016,323.572 196.839,324.974 L106.31,266.104 C103.016,259.917 100.628,253.316 98.88,246.544 L198.656,180.502 z" fill="#FFFF02"/>
      <path d="M208.2,204.274 C209.27,207.494 210.149,210.778 210.812,214.105 C213.556,214.84 212.776,212.262 218.952,210.066 C229.655,245.256 205.919,277.364 205.919,277.364 C222.217,272.206 238.834,267.762 255.78,265.355 C251.133,287.48 230.07,302.198 208.256,302.753 C181.21,302.753 159.285,280.707 159.285,253.513 C159.353,226.322 181.384,204.956 208.2,204.274 z" fill="#0505A3"/>
    </g>
    <path d="M1412.199,193.957 L1482.899,193.957 L1482.899,381.907 L1412.199,381.907 z M1447.549,183.457 Q1430.749,183.457 1420.249,171.907 Q1409.749,160.357 1409.749,143.557 Q1409.749,135.507 1412.549,128.157 Q1415.349,120.807 1420.249,115.382 Q1425.149,109.957 1432.149,106.632 Q1439.149,103.307 1447.549,103.307 Q1455.949,103.307 1462.949,106.632 Q1469.949,109.957 1474.849,115.382 Q1479.749,120.807 1482.549,128.157 Q1485.349,135.507 1485.349,143.557 Q1485.349,160.357 1474.849,171.907 Q1464.349,183.457 1447.549,183.457 z" fill="#000000"/>
    <path d="M1585.099,386.807 Q1552.199,386.807 1537.149,370.532 Q1522.099,354.257 1522.099,320.307 L1522.099,249.957 L1500.399,249.957 L1500.399,193.957 L1521.749,193.957 L1521.749,151.957 L1590.699,151.957 L1590.699,193.957 L1622.549,193.957 L1622.549,249.957 L1590.699,249.957 L1590.699,302.457 Q1590.699,314.707 1594.899,320.132 Q1599.099,325.557 1608.199,325.557 Q1611.699,325.557 1614.674,324.857 Q1617.649,324.157 1619.399,323.457 L1619.399,380.507 Q1614.499,383.307 1604.874,385.057 Q1595.249,386.807 1585.099,386.807 z" fill="#000000"/>
    <path d="M350.596,381.677 C377.546,381.677 399.596,359.627 399.596,332.677 L399.596,303.277 C399.596,286.827 391.196,272.477 378.946,263.377 C391.196,254.627 399.596,239.927 399.596,223.477 L399.596,194.427 C399.596,167.477 377.546,145.427 350.596,145.427 L310.346,145.427 L310.346,381.677 z M381.396,332.677 C381.396,349.827 367.746,363.477 350.596,363.477 L328.546,363.477 L328.546,272.477 L350.596,272.477 C367.746,272.477 381.396,286.127 381.396,303.277 z M328.546,254.277 L328.546,163.627 L350.596,163.627 C367.746,163.627 381.396,177.277 381.396,194.427 L381.396,223.477 C381.396,240.627 367.746,254.277 350.596,254.277 z" fill="#000000"/>
    <path d="M479.396,209.127 C460.846,209.127 448.946,215.077 442.996,224.177 L439.846,210.877 L427.246,210.877 L427.246,381.677 L445.446,381.677 L445.446,248.677 C445.446,236.777 454.546,227.327 466.446,227.327 L479.396,227.327 z" fill="#000000"/>
    <path d="M508.446,326.377 C508.446,319.377 514.746,315.877 514.746,315.877 L541.696,300.477 C541.696,300.477 544.846,298.727 547.646,295.927 L547.646,345.627 C547.646,356.477 538.896,365.227 528.046,365.227 C517.196,365.227 508.446,356.477 508.446,345.627 z M565.846,244.827 C565.846,225.227 549.746,209.127 530.146,209.127 C510.546,209.127 494.446,225.227 494.446,244.827 L494.446,267.227 L512.646,265.127 L512.646,244.827 C512.646,235.027 520.346,227.327 530.146,227.327 C539.946,227.327 547.646,235.027 547.646,244.827 L547.646,261.977 C547.646,275.977 532.596,284.727 532.596,284.727 L505.646,300.127 C505.646,300.127 490.246,308.877 490.246,326.377 L490.246,345.627 C490.246,366.627 507.046,383.427 528.046,383.427 C537.846,383.427 546.946,379.927 553.596,373.627 C558.146,378.527 564.796,381.677 572.146,381.677 L572.146,363.477 C568.646,363.477 565.846,360.677 565.846,357.177 z" fill="#000000"/>
    <path d="M589.646,229.077 L636.196,229.077 L589.646,372.577 L589.646,381.677 L657.546,381.677 L657.546,363.477 L610.646,363.477 L657.546,219.977 L657.546,210.877 L589.646,210.877 z" fill="#000000"/>
    <path d="M699.196,381.677 L680.996,381.677 L680.996,210.877 L699.196,210.877 z M680.996,166.777 L699.196,166.777 L699.196,191.277 L680.996,191.277 z" fill="#000000"/>
    <path d="M754.846,365.227 C750.996,365.227 747.846,362.077 747.846,358.227 L747.846,145.427 L729.646,147.527 L729.646,358.227 C729.646,372.227 740.846,383.427 754.846,383.427 z" fill="#000000"/>
    <path d="M870.696,222.427 L870.696,187.427 C870.696,162.227 850.396,141.927 825.196,141.927 C799.996,141.927 779.696,162.227 779.696,187.427 L779.696,339.677 C779.696,364.877 799.996,385.177 825.196,385.177 C850.396,385.177 870.696,364.877 870.696,339.677 L870.696,307.477 L852.496,307.477 L852.496,339.677 C852.496,354.727 840.246,366.977 825.196,366.977 C810.146,366.977 797.896,354.727 797.896,339.677 L797.896,187.427 C797.896,172.377 810.146,160.127 825.196,160.127 C840.246,160.127 852.496,172.377 852.496,187.427 L852.496,224.527 z" fill="#000000"/>
    <path d="M910.246,326.377 C910.246,319.377 916.546,315.877 916.546,315.877 L943.496,300.477 C943.496,300.477 946.646,298.727 949.446,295.927 L949.446,345.627 C949.446,356.477 940.696,365.227 929.846,365.227 C918.996,365.227 910.246,356.477 910.246,345.627 z M967.646,244.827 C967.646,225.227 951.546,209.127 931.946,209.127 C912.346,209.127 896.246,225.227 896.246,244.827 L896.246,267.227 L914.446,265.127 L914.446,244.827 C914.446,235.027 922.146,227.327 931.946,227.327 C941.746,227.327 949.446,235.027 949.446,244.827 L949.446,261.977 C949.446,275.977 934.396,284.727 934.396,284.727 L907.446,300.127 C907.446,300.127 892.046,308.877 892.046,326.377 L892.046,345.627 C892.046,366.627 908.846,383.427 929.846,383.427 C939.646,383.427 948.746,379.927 955.396,373.627 C959.946,378.527 966.596,381.677 973.946,381.677 L973.946,363.477 C970.446,363.477 967.646,360.677 967.646,357.177 z" fill="#000000"/>
    <path d="M1016.296,381.677 L1016.296,246.927 C1016.296,236.077 1025.046,227.327 1035.896,227.327 C1046.746,227.327 1055.496,236.077 1055.496,246.927 L1055.496,381.677 L1073.696,381.677 L1073.696,246.927 C1073.696,225.927 1058.646,209.127 1040.446,209.127 C1029.596,209.127 1019.796,215.077 1013.846,224.177 L1010.696,210.877 L998.096,210.877 L998.096,381.677 z" fill="#000000"/>
    <path d="M1116.046,326.377 C1116.046,319.377 1122.346,315.877 1122.346,315.877 L1149.296,300.477 C1149.296,300.477 1152.446,298.727 1155.246,295.927 L1155.246,345.627 C1155.246,356.477 1146.496,365.227 1135.646,365.227 C1124.796,365.227 1116.046,356.477 1116.046,345.627 z M1173.446,244.827 C1173.446,225.227 1157.346,209.127 1137.746,209.127 C1118.146,209.127 1102.046,225.227 1102.046,244.827 L1102.046,267.227 L1120.246,265.127 L1120.246,244.827 C1120.246,235.027 1127.946,227.327 1137.746,227.327 C1147.546,227.327 1155.246,235.027 1155.246,244.827 L1155.246,261.977 C1155.246,275.977 1140.196,284.727 1140.196,284.727 L1113.246,300.127 C1113.246,300.127 1097.846,308.877 1097.846,326.377 L1097.846,345.627 C1097.846,366.627 1114.646,383.427 1135.646,383.427 C1145.446,383.427 1154.546,379.927 1161.196,373.627 C1165.746,378.527 1172.396,381.677 1179.746,381.677 L1179.746,363.477 C1176.246,363.477 1173.446,360.677 1173.446,357.177 z" fill="#000000"/>
    <path d="M1278.096,145.427 L1259.896,147.527 L1259.896,221.027 C1253.946,213.677 1245.196,209.127 1235.746,209.127 C1217.546,209.127 1202.496,225.927 1202.496,246.927 L1202.496,345.627 C1202.496,366.627 1217.546,383.427 1235.746,383.427 C1246.596,383.427 1256.396,377.477 1262.346,368.377 L1265.496,381.677 L1278.096,381.677 z M1259.896,345.627 C1259.896,356.477 1251.146,365.227 1240.296,365.227 C1229.446,365.227 1220.696,356.477 1220.696,345.627 L1220.696,246.927 C1220.696,236.077 1229.446,227.327 1240.296,227.327 C1251.146,227.327 1259.896,236.077 1259.896,246.927 z" fill="#000000"/>
    <path d="M1320.796,326.377 C1320.796,319.377 1327.096,315.877 1327.096,315.877 L1354.046,300.477 C1354.046,300.477 1357.196,298.727 1359.996,295.927 L1359.996,345.627 C1359.996,356.477 1351.246,365.227 1340.396,365.227 C1329.546,365.227 1320.796,356.477 1320.796,345.627 z M1378.196,244.827 C1378.196,225.227 1362.096,209.127 1342.496,209.127 C1322.896,209.127 1306.796,225.227 1306.796,244.827 L1306.796,267.227 L1324.996,265.127 L1324.996,244.827 C1324.996,235.027 1332.696,227.327 1342.496,227.327 C1352.296,227.327 1359.996,235.027 1359.996,244.827 L1359.996,261.977 C1359.996,275.977 1344.946,284.727 1344.946,284.727 L1317.996,300.127 C1317.996,300.127 1302.596,308.877 1302.596,326.377 L1302.596,345.627 C1302.596,366.627 1319.396,383.427 1340.396,383.427 C1350.196,383.427 1359.296,379.927 1365.946,373.627 C1370.496,378.527 1377.146,381.677 1384.496,381.677 L1384.496,363.477 C1380.996,363.477 1378.196,360.677 1378.196,357.177 z" fill="#000000"/>
  </g>
</svg>
